{"title":"Aa Gaye Munde Uk De 2014 Punjabi PREDVDRIP  2014 GOPI SAHI @ ICT","uid":10741737,"size":720157665,"categoryP":"video","categoryS":"movies","magnet":"?xt=urn:btih:e72cfc86c41cb5b61871fc8ab319691677eb711d&amp;dn=Aa+Gaye+Munde+Uk+De+2014+Punjabi+PREDVDRIP++2014+GOPI+SAHI+%40+ICT&amp;tr=udp%3A%2F%2Ftracker.openbittorrent.com%3A80&amp;tr=udp%3A%2F%2Fopen.demonii.com%3A1337&amp;tr=udp%3A%2F%2Ftracker.coppersurfer.tk%3A6969&amp;tr=udp%3A%2F%2Fexodus.desync.com%3A6969","seeders":4,"leechers":2,"uploader":"jatt13","files":1,"time":1407717687,"description":"Video\nID                             : 1\nFormat                         : MPEG-4 Visual\nFormat profile                 : Advanced Simple@L5\nFormat settings, BVOP          : Yes\nFormat settings, QPel          : No\nFormat settings, GMC           : No warppoints\nFormat settings, Matrix        : Default (H.263)\nCodec ID                       : V_MS/VFW/FOURCC / XVID\nCodec ID/Hint                  : XviD\nDuration                       : 2h 7mn\nBit rate                       : 656 Kbps\nWidth                          : 640 pixels\nHeight                         : 272 pixels\nDisplay aspect ratio           : 2.35:1\nFrame rate mode                : Constant\nFrame rate                     : 29.970 fps\nColor space                    : YUV\nChroma subsampling             : 4:2:0\nBit depth                      : 8 bits\nScan type                      : Progressive\nCompression mode               : Lossy\nBits/(Pixel*Frame)             : 0.126\nStream size                    : 600 MiB (87%)\nTitle                          : GOPI SAHI\nWriting library                : XviD 1.2.1 (UTC 2008-12-04)\nLanguage                       : Panjabi\nDefault                        : Yes\nForced                         : No\n\nAudio\nID                             : 2\nFormat                         : MPEG Audio\nFormat version                 : Version 1\nFormat profile                 : Layer 3\nMode                           : Joint stereo\nMode extension                 : MS Stereo\nCodec ID                       : A_MPEG/L3\nCodec ID/Hint                  : MP3\nDuration                       : 2h 7mn\nBit rate mode                  : Constant\nBit rate                       : 80.0 Kbps\nChannel(s)                     : 2 channels\nSampling rate                  : 32.0 KHz\nCompression mode               : Lossy\nStream size                    : 73.1 MiB (11%)\nTitle                          : GOPI SAHI\nWriting library                : LAME3.99r\nEncoding settings              : -m j -V 4 -q 2 -lowpass 13.5 -b 80\nLanguage                       : Panjabi\nDefault                        : Yes\nForced                         : No\n[IMG]http://i.imgur.com/zibrrEo.jpg[/IMG]\n[IMG]http://i.imgur.com/MYbpOJz.jpg[/IMG]\n[IMG]http://i.imgur.com/593C6Tu.jpg[/IMG]\n[IMG]http://i.imgur.com/cKfTRVR.jpg[/IMG]\n[IMG]http://i.imgur.com/ChE8Htx.jpg[/IMG]","torrent":{"xt":"urn:btih:e72cfc86c41cb5b61871fc8ab319691677eb711d","amp;dn":"Aa+Gaye+Munde+Uk+De+2014+Punjabi+PREDVDRIP++2014+GOPI+SAHI+%40+ICT","amp;tr":["udp%3A%2F%2Ftracker.openbittorrent.com%3A80","udp%3A%2F%2Fopen.demonii.com%3A1337","udp%3A%2F%2Ftracker.coppersurfer.tk%3A6969","udp%3A%2F%2Fexodus.desync.com%3A6969"],"infoHash":"e72cfc86c41cb5b61871fc8ab319691677eb711d","infoHashBuffer":{"type":"Buffer","data":[231,44,252,134,196,28,181,182,24,113,252,138,179,25,105,22,119,235,113,29]},"announce":[],"urlList":[]}}